<svg width="18" height="18" viewBox="0 0 18 18" fill="none" xmlns="http://www.w3.org/2000/svg">
<g clip-path="url(#clip0_326_451)">
<path fill-rule="evenodd" clip-rule="evenodd" d="M-0.000488281 9.05074C-0.000488281 13.5252 3.24926 17.246 7.49951 18.0005V11.5002H5.24951V9.00049H7.49951V7.00024C7.49951 4.75024 8.94926 3.50074 10.9998 3.50074C11.6493 3.50074 12.3498 3.60049 12.9993 3.70024V6.00049H11.8495C10.7493 6.00049 10.4995 6.55024 10.4995 7.25074V9.00049H12.8995L12.4998 11.5002H10.4995V18.0005C14.7498 17.246 17.9995 13.526 17.9995 9.05074C17.9995 4.07299 13.9495 0.000488281 8.99951 0.000488281C4.04951 0.000488281 -0.000488281 4.07299 -0.000488281 9.05074Z" fill="#D5D9DB"/>
</g>
<defs>
<clipPath id="clip0_326_451">
<rect width="18" height="18" fill="white" transform="translate(-0.000244141 0.000488281)"/>
</clipPath>
</defs>
</svg>
