<svg width="19" height="18" viewBox="0 0 19 18" fill="none" xmlns="http://www.w3.org/2000/svg">
<g clip-path="url(#clip0_326_457)">
<path d="M9.74674 6.24675C8.23056 6.24675 6.99324 7.4841 6.99324 9.00031C6.99324 10.5165 8.23056 11.7539 9.74674 11.7539C11.2629 11.7539 12.5002 10.5165 12.5002 9.00031C12.5002 7.4841 11.2629 6.24675 9.74674 6.24675ZM18.0052 9.00031C18.0052 7.86005 18.0155 6.73012 17.9515 5.59193C17.8874 4.2699 17.5859 3.09659 16.6191 2.12985C15.6504 1.16105 14.4791 0.861522 13.1571 0.797486C12.0169 0.73345 10.887 0.743778 9.74881 0.743778C8.60857 0.743778 7.47867 0.73345 6.3405 0.797486C5.01849 0.861522 3.8452 1.16311 2.87848 2.12985C1.9097 3.09866 1.61018 4.2699 1.54614 5.59193C1.48211 6.73219 1.49244 7.86212 1.49244 9.00031C1.49244 10.1385 1.48211 11.2705 1.54614 12.4087C1.61018 13.7307 1.91176 14.904 2.87848 15.8708C3.84727 16.8396 5.01849 17.1391 6.3405 17.2031C7.48073 17.2672 8.61064 17.2568 9.74881 17.2568C10.889 17.2568 12.019 17.2672 13.1571 17.2031C14.4791 17.1391 15.6524 16.8375 16.6191 15.8708C17.5879 14.902 17.8874 13.7307 17.9515 12.4087C18.0176 11.2705 18.0052 10.1406 18.0052 9.00031ZM9.74674 13.237C7.40224 13.237 5.51011 11.3449 5.51011 9.00031C5.51011 6.65576 7.40224 4.76359 9.74674 4.76359C12.0912 4.76359 13.9834 6.65576 13.9834 9.00031C13.9834 11.3449 12.0912 13.237 9.74674 13.237ZM14.1569 5.57954C13.6095 5.57954 13.1674 5.13748 13.1674 4.59008C13.1674 4.04267 13.6095 3.60062 14.1569 3.60062C14.7043 3.60062 15.1463 4.04267 15.1463 4.59008C15.1465 4.72006 15.121 4.8488 15.0714 4.96892C15.0217 5.08904 14.9488 5.19818 14.8569 5.2901C14.765 5.38201 14.6558 5.45489 14.5357 5.50455C14.4156 5.55422 14.2869 5.5797 14.1569 5.57954Z" fill="#D5D9DB"/>
</g>
<defs>
<clipPath id="clip0_326_457">
<rect width="18" height="18" fill="white" transform="translate(0.749756 0.000488281)"/>
</clipPath>
</defs>
</svg>
