<svg width="19" height="18" viewBox="0 0 19 18" fill="none" xmlns="http://www.w3.org/2000/svg">
<g clip-path="url(#clip0_326_453)">
<path fill-rule="evenodd" clip-rule="evenodd" d="M0.997803 2.12899C0.997803 1.76339 1.14304 1.41276 1.40156 1.15424C1.66008 0.895724 2.0107 0.75049 2.3763 0.75049H16.1178C16.299 0.750194 16.4784 0.785637 16.6459 0.85479C16.8134 0.923943 16.9656 1.02545 17.0937 1.15349C17.2219 1.28154 17.3236 1.43361 17.3929 1.601C17.4623 1.76839 17.4979 1.94781 17.4978 2.12899V15.8705C17.498 16.0517 17.4625 16.2312 17.3932 16.3987C17.324 16.5661 17.2224 16.7183 17.0943 16.8465C16.9662 16.9746 16.8141 17.0763 16.6467 17.1456C16.4792 17.215 16.2998 17.2506 16.1186 17.2505H2.3763C2.19521 17.2505 2.0159 17.2148 1.8486 17.1455C1.6813 17.0762 1.52931 16.9746 1.40129 16.8465C1.27328 16.7184 1.17175 16.5663 1.10252 16.399C1.03329 16.2317 0.997704 16.0523 0.997803 15.8712V2.12899ZM7.5288 7.04149H9.76305V8.16349C10.0856 7.51849 10.9106 6.93799 12.1503 6.93799C14.5271 6.93799 15.0903 8.22274 15.0903 10.58V14.9465H12.6851V11.117C12.6851 9.77449 12.3626 9.01699 11.5436 9.01699C10.4073 9.01699 9.9348 9.83374 9.9348 11.117V14.9465H7.5288V7.04149ZM3.4038 14.8437H5.8098V6.93799H3.4038V14.843V14.8437ZM6.15405 4.35949C6.15859 4.56549 6.12193 4.77033 6.04623 4.96198C5.97053 5.15362 5.85732 5.32822 5.71323 5.47551C5.56914 5.62281 5.39708 5.73984 5.20714 5.81975C5.01721 5.89965 4.81323 5.9408 4.60718 5.9408C4.40112 5.9408 4.19714 5.89965 4.00721 5.81975C3.81728 5.73984 3.64522 5.62281 3.50113 5.47551C3.35704 5.32822 3.24382 5.15362 3.16812 4.96198C3.09242 4.77033 3.05577 4.56549 3.0603 4.35949C3.06921 3.95513 3.23609 3.57033 3.52522 3.2875C3.81434 3.00468 4.20272 2.8463 4.60718 2.8463C5.01164 2.8463 5.40001 3.00468 5.68914 3.2875C5.97826 3.57033 6.14515 3.95513 6.15405 4.35949Z" fill="#D5D9DB"/>
</g>
<defs>
<clipPath id="clip0_326_453">
<rect width="18" height="18" fill="white" transform="translate(0.249756 0.000488281)"/>
</clipPath>
</defs>
</svg>
