<svg width="19" height="18" viewBox="0 0 19 18" fill="none" xmlns="http://www.w3.org/2000/svg">
<path fill-rule="evenodd" clip-rule="evenodd" d="M3.24582 3.524C3.24732 3.524 3.20982 3.563 3.16257 3.6095C2.98107 3.78575 2.60532 4.1525 2.60153 4.91975C2.59557 5.993 3.30132 7.98575 6.69957 11.3833C10.0821 14.7643 12.0718 15.4783 13.1473 15.4783H13.1631C13.9303 15.4745 14.2963 15.098 14.4733 14.9173C14.5273 14.8618 14.5708 14.8213 14.6016 14.7958C15.3486 14.0443 15.7311 13.4848 15.7273 13.1263C15.7221 12.7603 15.2668 12.3275 14.6376 11.729C14.4373 11.5385 14.2198 11.3315 13.9903 11.102C13.3956 10.5088 13.1008 10.61 12.4528 10.838C11.5566 11.1523 10.3266 11.5798 8.41557 9.668C6.50157 7.7555 6.92982 6.527 7.24332 5.63075C7.46982 4.98275 7.57332 4.68725 6.97782 4.09175C6.74457 3.85925 6.53532 3.63875 6.34257 3.43625C5.74782 2.81075 5.31882 2.3585 4.95507 2.35325H4.94907C4.58982 2.35325 4.03182 2.73725 3.24207 3.527C3.24432 3.52475 3.24582 3.524 3.24582 3.524ZM13.1481 16.6033C11.2791 16.6033 8.84232 15.1153 5.90457 12.179C2.95557 9.23075 1.46532 6.7865 1.4765 4.91375C1.48332 3.67625 2.13207 3.0425 2.37582 2.80475C2.38857 2.789 2.43207 2.74625 2.44707 2.73125C3.52257 1.655 4.24782 1.22 4.96932 1.22814C5.80707 1.2395 6.40332 1.8665 7.15782 2.66075C7.34457 2.85725 7.54707 3.071 7.77282 3.296C8.86782 4.391 8.55582 5.28425 8.30532 6.00125C8.03232 6.7835 7.79607 7.4585 9.21057 8.873C10.6266 10.2875 11.3016 10.0513 12.0808 9.776C12.7986 9.52551 13.6896 9.212 14.7861 10.307C15.0081 10.529 15.2188 10.7293 15.4131 10.9145C16.2111 11.6728 16.8411 12.272 16.8517 13.112C16.8606 13.8283 16.4256 14.558 15.3516 15.6328L14.8761 15.3103L15.2781 15.7033C15.0403 15.947 14.4073 16.5965 13.1691 16.6033H13.1481Z" fill="white"/>
</svg>
