<svg width="35" height="27" viewBox="0 0 35 27" fill="none" xmlns="http://www.w3.org/2000/svg">
<path d="M26.586 26.7665C24.6509 26.7665 22.9655 26.0799 21.5298 24.7066C20.0941 23.3333 19.3763 21.1173 19.3763 18.0587C19.3763 14.4382 20.5623 10.9737 22.9343 7.66537C25.3688 4.29457 29.3014 1.8289 34.7321 0.268349V1.20468C32.797 1.8289 31.0804 2.57797 29.5823 3.45188C28.1466 4.32578 26.9918 5.35575 26.1179 6.54177C25.3064 7.66537 24.9006 9.03865 24.9006 10.6616C24.9006 11.9725 25.1503 13.0025 25.6497 13.7515C26.2115 14.4382 26.8669 15 27.616 15.4369C28.4275 15.8115 29.2077 16.186 29.9568 16.5605C30.7059 16.9351 31.3301 17.4656 31.8295 18.1523C32.3913 18.8389 32.6722 19.8065 32.6722 21.0549C32.6722 22.9276 32.0792 24.3633 30.8931 25.362C29.7695 26.2984 28.3338 26.7665 26.586 26.7665ZM7.85938 26.7665C5.9243 26.7665 4.2389 26.0799 2.80319 24.7066C1.36749 23.3333 0.649631 21.1173 0.649631 18.0587C0.649631 14.4382 1.83565 10.9737 4.20769 7.66537C6.64215 4.29457 10.5747 1.8289 16.0055 0.268349V1.20468C14.0704 1.8289 12.3538 2.57797 10.8556 3.45188C9.41994 4.32578 8.26513 5.35575 7.39122 6.54177C6.57973 7.66537 6.17399 9.03865 6.17399 10.6616C6.17399 11.9725 6.42368 13.0025 6.92305 13.7515C7.48485 14.4382 8.14028 15 8.88935 15.4369C9.70084 15.8115 10.4811 16.186 11.2302 16.5605C11.9792 16.9351 12.6035 17.4656 13.1028 18.1523C13.6646 18.8389 13.9455 19.8065 13.9455 21.0549C13.9455 22.9276 13.3525 24.3633 12.1665 25.362C11.0429 26.2984 9.6072 26.7665 7.85938 26.7665Z" fill="#E9B903"/>
</svg>
