<svg width="35" height="27" viewBox="0 0 35 27" fill="none" xmlns="http://www.w3.org/2000/svg">
<path d="M8.27578 0.280094C10.2109 0.280094 11.8963 0.966738 13.332 2.34003C14.7677 3.71331 15.4855 5.9293 15.4855 8.98798C15.4855 12.6085 14.2995 16.0729 11.9275 19.3813C9.49301 22.7521 5.56042 25.2177 0.129697 26.7783V25.842C2.06478 25.2177 3.78139 24.4687 5.27952 23.5948C6.71523 22.7208 7.87004 21.6909 8.74395 20.5049C9.55544 19.3813 9.96118 18.008 9.96118 16.385C9.96118 15.0741 9.71149 14.0442 9.21211 13.2951C8.65032 12.6085 7.99488 12.0467 7.24582 11.6097C6.43433 11.2352 5.65405 10.8606 4.90499 10.4861C4.15592 10.1116 3.5317 9.58099 3.03232 8.89435C2.47053 8.2077 2.18963 7.24016 2.18963 5.99172C2.18963 4.11906 2.78264 2.68335 3.96866 1.68459C5.09225 0.74826 6.52796 0.280094 8.27578 0.280094ZM27.0024 0.280094C28.9375 0.280094 30.6229 0.966738 32.0586 2.34003C33.4943 3.71331 34.2122 5.9293 34.2122 8.98798C34.2122 12.6085 33.0261 16.0729 30.6541 19.3813C28.2196 22.7521 24.2871 25.2177 18.8563 26.7783V25.842C20.7914 25.2177 22.508 24.4687 24.0062 23.5948C25.4419 22.7208 26.5967 21.6909 27.4706 20.5049C28.2821 19.3813 28.6878 18.008 28.6878 16.385C28.6878 15.0741 28.4381 14.0442 27.9387 13.2951C27.3769 12.6085 26.7215 12.0467 25.9725 11.6097C25.161 11.2352 24.3807 10.8606 23.6316 10.4861C22.8826 10.1116 22.2583 9.58099 21.759 8.89435C21.1972 8.2077 20.9163 7.24016 20.9163 5.99172C20.9163 4.11906 21.5093 2.68335 22.6953 1.68459C23.8189 0.74826 25.2546 0.280094 27.0024 0.280094Z" fill="#E9B903"/>
</svg>
