<svg width="15" height="14" viewBox="0 0 15 14" fill="none" xmlns="http://www.w3.org/2000/svg">
<path d="M5.94924 4.53713H8.71624V5.95513H8.75624C9.14124 5.26413 10.0832 4.53713 11.4882 4.53713C14.4092 4.53713 14.9492 6.35513 14.9492 8.72013V13.5371H12.0642V9.26713C12.0642 8.24913 12.0432 6.93813 10.5642 6.93813C9.06224 6.93813 8.83224 8.04713 8.83224 9.19313V13.5371H5.94924V4.53713ZM0.949242 4.53713H3.94924V13.5371H0.949242V4.53713ZM3.94924 2.03713C3.94911 2.43509 3.79089 2.8167 3.5094 3.098C3.22791 3.3793 2.8462 3.53727 2.44824 3.53713C2.05028 3.537 1.66868 3.37879 1.38738 3.09729C1.10607 2.8158 0.94811 2.43409 0.948242 2.03613C0.948375 1.63818 1.10659 1.25657 1.38808 0.975266C1.52746 0.835978 1.69291 0.725507 1.87499 0.65016C2.05706 0.574814 2.25219 0.536067 2.44924 0.536133C2.64629 0.536199 2.8414 0.575075 3.02342 0.650543C3.20544 0.726011 3.37082 0.836592 3.51011 0.975973C3.6494 1.11535 3.75987 1.2808 3.83521 1.46288C3.91056 1.64495 3.94931 1.84008 3.94924 2.03713Z" fill="black"/>
</svg>
