<svg width="16" height="13" viewBox="0 0 16 13" fill="none" xmlns="http://www.w3.org/2000/svg">
<path d="M15.055 1.9728C14.493 2.21697 13.8984 2.37784 13.29 2.45032C13.9294 2.07591 14.4103 1.48111 14.6424 0.777452C14.0379 1.13094 13.3776 1.37896 12.6899 1.51089C12.4003 1.20738 12.052 0.965932 11.6661 0.801218C11.2803 0.636503 10.865 0.551964 10.4455 0.55274C8.74708 0.55274 7.37259 1.90726 7.37259 3.577C7.37138 3.80926 7.398 4.04082 7.45186 4.26675C6.23394 4.20965 5.04135 3.89896 3.95039 3.35455C2.85943 2.81015 1.89411 2.04401 1.1162 1.10516C0.843294 1.56523 0.698965 2.09016 0.698299 2.62509C0.698299 3.67375 1.24541 4.60069 2.07155 5.14375C1.58209 5.13213 1.10266 5.00259 0.673956 4.76611V4.80356C0.673956 6.27044 1.7351 7.49075 3.13956 7.76852C2.87545 7.83893 2.60329 7.8746 2.32997 7.87464C2.13602 7.87497 1.94251 7.85616 1.75227 7.81846C2.1427 9.02005 3.27907 9.89393 4.62516 9.9189C3.53136 10.7619 2.18846 11.2175 0.807535 11.2141C0.562416 11.2138 0.317525 11.1992 0.0740967 11.1704C1.47892 12.0675 3.11192 12.542 4.77871 12.5374C10.439 12.5374 13.5313 7.92769 13.5313 3.92968C13.5313 3.79859 13.5279 3.66751 13.5216 3.53955C14.1218 3.11261 14.6411 2.58206 15.055 1.9728Z" fill="#1F2732"/>
</svg>
